<?xml version="1.0" encoding="UTF-8" standalone="no"?>
<svg
   xmlns:dc="http://purl.org/dc/elements/1.1/"
   xmlns:cc="http://creativecommons.org/ns#"
   xmlns:rdf="http://www.w3.org/1999/02/22-rdf-syntax-ns#"
   xmlns:svg="http://www.w3.org/2000/svg"
   xmlns="http://www.w3.org/2000/svg"
   version="1.1"
   id="svg2"
   viewBox="0 0 512 174.99999"
   height="175"
   width="512">
  <title
     id="title4390">SXAPI logo</title>
  <defs
     id="defs4" />
  <metadata
     id="metadata7">
    <rdf:RDF>
      <cc:Work
         rdf:about="">
        <dc:format>image/svg+xml</dc:format>
        <dc:type
           rdf:resource="http://purl.org/dc/dcmitype/StillImage" />
        <dc:title>SXAPI logo</dc:title>
        <cc:license
           rdf:resource="http://creativecommons.org/licenses/by-sa/3.0/" />
        <dc:creator>
          <cc:Agent>
            <dc:title>startx</dc:title>
          </cc:Agent>
        </dc:creator>
      </cc:Work>
      <cc:License
         rdf:about="http://creativecommons.org/licenses/by-sa/3.0/">
        <cc:permits
           rdf:resource="http://creativecommons.org/ns#Reproduction" />
        <cc:permits
           rdf:resource="http://creativecommons.org/ns#Distribution" />
        <cc:requires
           rdf:resource="http://creativecommons.org/ns#Notice" />
        <cc:requires
           rdf:resource="http://creativecommons.org/ns#Attribution" />
        <cc:permits
           rdf:resource="http://creativecommons.org/ns#DerivativeWorks" />
        <cc:requires
           rdf:resource="http://creativecommons.org/ns#ShareAlike" />
      </cc:License>
    </rdf:RDF>
  </metadata>
  <g
     transform="matrix(-0.31207665,0,0,0.31283818,161.9617,3.52085)"
     id="g3"
     style="fill:#0c6f5e;fill-opacity:1">
    <g
       id="g5"
       style="fill:#0c6f5e;fill-opacity:1">
      <path
         d="M 507.477,38.331 473.668,4.522 C 467.907,-1.238 458.662,-1.532 452.547,3.85 L 152.134,268.311 c -1.082,0.952 -2.025,2.052 -2.802,3.266 l -49.487,77.317 63.26,63.26 77.318,-49.487 c 1.215,-0.777 2.313,-1.721 3.266,-2.802 L 508.149,59.452 c 5.384,-6.115 5.09,-15.361 -0.672,-21.121 z"
         id="path7"
         style="fill:#0c6f5e;fill-opacity:1" />
    </g>
  </g>
  <g
     transform="matrix(-0.44602317,0,0,0.44711167,171.49019,-56.11038)"
     id="g9">
    <g
       id="g11"
       style="fill:#000e44;fill-opacity:1">
      <path
         style="fill:#000e44;fill-opacity:1"
         d="m 19.490234,15.84375 -3.644531,3.654297 0.746094,2.796875 c 0.09777,0.36694 0.398246,0.645049 0.771484,0.710937 l 5.457031,0.960938 c 0.280681,0.0495 0.541789,-0.0286 0.746094,-0.181641 l -2.75,-2.75 c -0.573071,0.468497 -1.415097,0.441675 -1.949218,-0.09375 -0.569856,-0.571119 -0.569856,-1.497176 0,-2.068359 0.569792,-0.57112 1.494723,-0.571183 2.064453,0 0.462364,0.463544 0.542006,1.159339 0.253906,1.710937 l 2.644531,2.910157 c 0.10984,-0.189236 0.16127,-0.418147 0.119141,-0.658203 l -0.960938,-5.470704 c -0.0656,-0.374086 -0.340984,-0.675426 -0.707031,-0.773437 z m 4.339844,7.650391 c -0.07838,0.126562 -0.157887,0.227401 -0.263672,0.291015 0.104759,-0.0621 0.183594,-0.16276 0.263672,-0.291015 z m -2.644531,-2.910157 c -0.110006,0.169225 -0.193913,0.329604 -0.369141,0.451172 0.177404,-0.122017 0.259196,-0.281912 0.369141,-0.451172 z"
         transform="matrix(-15.853144,0,0,15.81455,379.90302,132.72542)"
         id="path13" />
    </g>
    <g
       id="text4196"
       style="font-style:normal;font-weight:normal;font-size:266.16577148px;line-height:150%;font-family:Sans;letter-spacing:0px;word-spacing:3.34608388px;fill:#000000;fill-opacity:1;stroke:none;stroke-width:1px;stroke-linecap:butt;stroke-linejoin:miter;stroke-opacity:1"
       transform="matrix(-1.1507985,0,0,1.1479968,-12.291088,-64.327177)">
      <path
         id="path4201"
         style="font-style:normal;font-variant:normal;font-weight:bold;font-stretch:normal;font-family:Caladea;-inkscape-font-specification:'Caladea Bold';letter-spacing:13.43583107px;fill:#000e44;fill-opacity:1"
         d="m -0.34260956,345.8358 46.57900956,0 q 8.517305,-12.77596 12.509792,-33.80306 5.323315,-0.79849 10.380465,-0.79849 5.057149,0 9.315802,0.79849 l -2.661658,50.30533 -131.485891,0 1.064663,-10.91279 q 10.380465,-1.597 15.171449,-6.65415 l 0,-141.06786 q -4.258652,-3.72632 -16.502278,-7.98497 l 1.330829,-10.9128 74.26025,0 -1.596994,10.9128 q -11.4451285,2.12933 -18.36543856,7.98497 l 0,142.13253 z" />
      <path
         id="path4203"
         style="font-style:normal;font-variant:normal;font-weight:bold;font-stretch:normal;font-family:Caladea;-inkscape-font-specification:'Caladea Bold';letter-spacing:13.43583107px;fill:#000e44;fill-opacity:1"
         d="m 119.48884,268.11539 q 0,-9.58197 -3.72632,-13.04212 -3.46016,-3.72632 -12.77596,-4.25865 l 0.7985,-10.38047 q 3.46015,-0.7985 14.37295,-2.66166 25.81808,-3.99248 34.33538,-6.38798 l 4.52482,2.3955 0,110.99112 q 6.65415,5.05715 17.03461,7.18648 l -1.06466,10.38046 -68.40461,0 1.06467,-10.91279 q 8.78347,-1.86316 13.84062,-6.65415 l 0,-76.65574 z m 19.16393,-89.4317 q 21.29326,0 21.29326,18.63161 0,18.6316 -21.29326,18.6316 -21.02709,0 -21.02709,-18.6316 0,-18.63161 21.02709,-18.63161 z" />
      <path
         id="path4205"
         style="font-style:normal;font-variant:normal;font-weight:bold;font-stretch:normal;font-family:Caladea;-inkscape-font-specification:'Caladea Bold';letter-spacing:13.43583107px;fill:#000e44;fill-opacity:1"
         d="m 250.96919,249.21762 q 11.7113,-17.83311 35.66622,-17.83311 24.22108,0 36.73087,15.96995 12.77596,15.96995 12.77596,48.44217 0,32.20606 -15.96995,50.30533 -15.70378,18.09927 -44.18351,18.09927 -20.2286,0 -35.66622,-8.5173 l -6.92031,6.65414 -19.96243,0 0,-148.5205 q 0,-9.84813 -3.72632,-13.30829 -3.46016,-3.72632 -12.77596,-4.25865 l 0.53233,-10.38046 q 38.06171,-5.85565 48.97451,-9.04964 l 4.52481,2.66166 0,69.73543 z m 24.22109,-1.86316 q -11.44513,0 -17.83311,11.17896 -6.38798,11.17897 -6.38798,32.47223 l 0,54.03165 q 7.18648,5.05715 17.56694,5.05715 28.74591,0 28.74591,-55.89481 0,-46.84518 -22.09176,-46.84518 z" />
      <path
         id="path4207"
         style="font-style:normal;font-variant:normal;font-weight:bold;font-stretch:normal;font-family:Caladea;-inkscape-font-specification:'Caladea Bold';letter-spacing:13.43583107px;fill:#000e44;fill-opacity:1"
         d="m 385.73502,268.11539 q 0,-9.58197 -3.72632,-13.04212 -3.72632,-3.72632 -13.04213,-4.25865 l 0.7985,-10.38047 q 39.92487,-7.45264 45.51435,-9.04964 l 4.79098,2.3955 2.12933,17.56694 q 13.57445,-19.69627 34.33538,-19.69627 10.38047,0 17.83311,7.18648 7.71881,6.92031 7.71881,17.03461 0,9.84813 -5.58948,15.43761 -5.32332,5.32332 -13.04213,5.32332 -7.7188,0 -12.50979,-6.65415 3.72632,-4.52482 3.72632,-8.78347 0,-4.25865 -3.72632,-6.92031 -3.46015,-2.66166 -8.5173,-2.66166 -5.05715,0 -10.64663,4.79099 -5.32332,4.52481 -8.51731,11.97746 l 0,76.38957 q 6.12181,4.79099 15.96995,7.18648 l -1.06467,10.38046 -67.33994,0 0.7985,-10.91279 q 8.51731,-1.597 14.10679,-6.65415 l 0,-76.65574 z" />
      <path
         id="path4209"
         style="font-style:normal;font-variant:normal;font-weight:bold;font-stretch:normal;font-family:Caladea;-inkscape-font-specification:'Caladea Bold';letter-spacing:13.43583107px;fill:#000e44;fill-opacity:1"
         d="m 543.2497,297.65979 0,4.25865 q 0,22.35793 6.38798,33.27073 6.38798,10.64663 23.95492,10.64663 22.35792,0 36.73087,-14.63912 l 10.64664,10.38046 q -10.9128,10.9128 -22.89026,16.76845 -11.7113,5.85564 -30.87523,5.85564 -30.87523,0 -46.57901,-17.30077 -15.43762,-17.56694 -15.43762,-48.44217 0,-31.1414 16.50228,-48.9745 16.50228,-18.09928 46.84518,-18.09928 30.60906,0 43.11885,13.84062 12.50979,13.84062 14.10679,41.2557 l -7.45264,11.17896 -75.05875,0 z m 25.01958,-53.23315 q -24.22108,0 -25.01958,42.58652 l 44.71585,-2.12933 q 0,-21.29326 -4.25865,-30.87523 -4.25866,-9.58196 -15.43762,-9.58196 z" />
    </g>
  </g>
  <g
     transform="matrix(0.96381284,0,0,0.96381284,495.16753,-1716.5309)"
     id="g15" />
  <g
     transform="matrix(0.96381284,0,0,0.96381284,495.16753,-1716.5309)"
     id="g17" />
  <g
     transform="matrix(0.96381284,0,0,0.96381284,495.16753,-1716.5309)"
     id="g19" />
  <g
     transform="matrix(0.96381284,0,0,0.96381284,495.16753,-1716.5309)"
     id="g21" />
  <g
     transform="matrix(0.96381284,0,0,0.96381284,495.16753,-1716.5309)"
     id="g23" />
  <g
     transform="matrix(0.96381284,0,0,0.96381284,495.16753,-1716.5309)"
     id="g25" />
  <g
     transform="matrix(0.96381284,0,0,0.96381284,495.16753,-1716.5309)"
     id="g27" />
  <g
     transform="matrix(0.96381284,0,0,0.96381284,495.16753,-1716.5309)"
     id="g29" />
  <g
     transform="matrix(0.96381284,0,0,0.96381284,495.16753,-1716.5309)"
     id="g31" />
  <g
     transform="matrix(0.96381284,0,0,0.96381284,495.16753,-1716.5309)"
     id="g33" />
  <g
     transform="matrix(0.96381284,0,0,0.96381284,495.16753,-1716.5309)"
     id="g35" />
  <g
     transform="matrix(0.96381284,0,0,0.96381284,495.16753,-1716.5309)"
     id="g37" />
  <g
     transform="matrix(0.96381284,0,0,0.96381284,495.16753,-1716.5309)"
     id="g39" />
  <g
     transform="matrix(0.96381284,0,0,0.96381284,495.16753,-1716.5309)"
     id="g41" />
  <g
     transform="matrix(0.96381284,0,0,0.96381284,495.16753,-1716.5309)"
     id="g43" />
  <g
     id="text4160"
     style="font-style:normal;font-weight:normal;font-size:65.48688507px;line-height:150%;font-family:Sans;letter-spacing:0px;word-spacing:0.82326359px;fill:#000000;fill-opacity:1;stroke:none;stroke-width:1px;stroke-linecap:butt;stroke-linejoin:miter;stroke-opacity:1">
    <path
       id="path4165"
       style="font-style:normal;font-variant:normal;font-weight:bold;font-stretch:normal;font-family:Cambria;-inkscape-font-specification:'Cambria Bold';fill:#0c6f5e;fill-opacity:1"
       d="m 377.84883,162.84007 0,-2.11041 q 1.34299,-0.22384 2.11042,-0.57557 0.7994,-0.38372 1.18311,-1.05521 0.38371,-0.6715 0.47964,-1.69473 0.0959,-1.05521 0.0959,-2.59006 l 0,-31.88009 -2.59006,0 q -1.91856,0 -2.94179,0.44767 -1.02324,0.44766 -1.79066,1.40694 -0.73545,0.95928 -1.27904,2.59006 -0.54359,1.5988 -0.89533,3.03772 l -4.38071,0 0,-11.22358 37.63577,0 0,11.22358 -4.38071,0 q -0.60755,-2.17437 -0.95929,-3.1976 -0.35173,-1.02323 -0.7994,-1.72671 -0.41568,-0.73544 -0.89532,-1.21509 -0.47964,-0.47964 -1.02324,-0.76742 -0.54359,-0.28778 -1.37497,-0.41569 -0.7994,-0.15988 -2.11041,-0.15988 l -2.30228,0 0,31.88009 q 0,1.69473 0.0959,2.59006 0.0959,0.86335 0.35174,1.40694 0.25581,0.5436 0.60754,0.89533 0.38371,0.31976 1.02324,0.60755 0.67149,0.25581 1.79065,0.41569 l 0,2.11041 -17.65076,0 z" />
    <path
       id="path4167"
       style="font-style:normal;font-variant:normal;font-weight:bold;font-stretch:normal;font-family:Cambria;-inkscape-font-specification:'Cambria Bold';fill:#0c6f5e;fill-opacity:1"
       d="m 459.86732,121.30323 q -1.69473,0.47964 -2.30228,1.0552 -0.60754,0.5436 -0.86335,1.50288 -0.22383,0.9273 -0.22383,3.3255 l 0,27.65926 q 0,1.95054 0.19185,3.10167 0.19186,1.11916 0.76743,1.72671 0.60754,0.57557 2.43018,1.05521 l 0,2.11041 -16.4037,0 0,-2.11041 q 1.40694,-0.38372 1.95054,-0.6715 0.54359,-0.28779 0.83137,-0.73545 0.31976,-0.47964 0.44767,-1.40694 0.15988,-0.95928 0.15988,-3.13365 l 0,-15.66825 q 0,-2.59006 0.0959,-6.10742 0.0959,-3.51736 0.19186,-4.98826 l -0.6715,0 q -0.38371,1.27904 -0.83137,2.5261 -0.41569,1.21509 -1.5988,4.38072 l -8.56958,23.08668 -5.62778,0 -9.01723,-25.93255 q -0.7994,-2.20634 -1.40695,-4.38071 l -0.57557,0 q 0.31976,5.27604 0.31976,12.47065 l 0,14.70896 q 0,2.36623 0.22384,3.29353 0.22383,0.92731 0.89533,1.53485 0.67149,0.60755 2.33424,1.02324 l 0,2.11041 -12.08693,0 0,-2.11041 q 1.18311,-0.31976 1.85461,-0.70348 0.70347,-0.38371 1.05521,-1.02323 0.35173,-0.63952 0.41569,-1.63078 0.0959,-0.99125 0.0959,-2.5261 l 0,-27.65926 q 0,-2.43017 -0.22383,-3.3255 -0.19185,-0.89533 -0.7994,-1.4709 -0.60754,-0.57557 -2.3982,-1.08718 l 0,-2.11042 15.89208,0 8.85736,26.25231 9.5928,-26.25231 14.99676,0 0,2.11042 z" />
    <path
       id="path4169"
       style="font-style:normal;font-variant:normal;font-weight:bold;font-stretch:normal;font-family:Cambria;-inkscape-font-specification:'Cambria Bold';fill:#0c6f5e;fill-opacity:1"
       d="m 470.00371,152.06415 q 0.7994,3.80515 2.65401,5.69174 1.88659,1.8546 5.49988,1.8546 1.88658,0 3.38945,-0.63952 1.50288,-0.63952 2.39821,-2.04646 0.9273,-1.43892 0.9273,-3.58131 0,-1.98252 -0.73545,-3.42144 -0.73545,-1.4709 -2.36622,-2.78191 -1.63078,-1.31102 -4.5406,-2.78192 -2.49413,-1.24706 -4.50862,-2.59005 -2.01449,-1.343 -3.45341,-2.9418 -1.40694,-1.63077 -2.20634,-3.54933 -0.76743,-1.91857 -0.76743,-4.31677 0,-3.93305 1.95054,-6.68299 1.95054,-2.74993 5.62778,-4.15688 3.70922,-1.43892 8.56957,-1.43892 2.84587,0 5.43593,0.31976 2.59005,0.28779 5.91556,1.05521 l 0,9.27305 -4.38072,0 q -0.60754,-2.52611 -1.56682,-3.99701 -0.9273,-1.50287 -2.33425,-2.20634 -1.40694,-0.70347 -3.54934,-0.70347 -1.82263,0 -3.26155,0.63952 -1.43892,0.63952 -2.2703,1.91856 -0.83138,1.24706 -0.83138,3.03772 0,1.85461 0.70348,3.22958 0.73545,1.34299 2.43017,2.65401 1.69473,1.27904 4.92431,2.94179 3.93305,2.04647 6.17137,4.02898 2.2703,1.95054 3.32551,4.28478 1.08718,2.30228 1.08718,5.37198 0,3.93305 -1.82263,6.84286 -1.82263,2.87785 -5.30802,4.44467 -3.48538,1.53485 -8.05796,1.53485 -3.26155,0 -6.81089,-0.38371 -3.51736,-0.35174 -6.61903,-1.05521 l 0,-9.84862 4.38071,0 z" />
  </g>
</svg>
