<?xml version="1.0" encoding="UTF-8" standalone="no"?>
<svg
   xmlns:dc="http://purl.org/dc/elements/1.1/"
   xmlns:cc="http://creativecommons.org/ns#"
   xmlns:rdf="http://www.w3.org/1999/02/22-rdf-syntax-ns#"
   xmlns:svg="http://www.w3.org/2000/svg"
   xmlns="http://www.w3.org/2000/svg"
   xmlns:sodipodi="http://sodipodi.sourceforge.net/DTD/sodipodi-0.dtd"
   xmlns:inkscape="http://www.inkscape.org/namespaces/inkscape"
   width="512"
   height="175"
   viewBox="0 0 512 174.99999"
   id="svg2"
   version="1.1"
   inkscape:version="0.91 r13725"
   sodipodi:docname="logo.svg">
  <sodipodi:namedview
     pagecolor="#ffffff"
     bordercolor="#666666"
     borderopacity="1"
     objecttolerance="10"
     gridtolerance="10"
     guidetolerance="10"
     inkscape:pageopacity="0"
     inkscape:pageshadow="2"
     inkscape:window-width="1600"
     inkscape:window-height="834"
     id="namedview22"
     showgrid="false"
     inkscape:zoom="0.54966504"
     inkscape:cx="171.63299"
     inkscape:cy="298.16802"
     inkscape:window-x="0"
     inkscape:window-y="27"
     inkscape:window-maximized="1"
     inkscape:current-layer="svg2" />
  <title
     id="title4390">SXAPI logo</title>
  <defs
     id="defs4" />
  <metadata
     id="metadata7">
    <rdf:RDF>
      <cc:Work
         rdf:about="">
        <dc:format>image/svg+xml</dc:format>
        <dc:type
           rdf:resource="http://purl.org/dc/dcmitype/StillImage" />
        <dc:title>SXAPI logo</dc:title>
        <cc:license
           rdf:resource="http://creativecommons.org/licenses/by-sa/3.0/" />
        <dc:creator>
          <cc:Agent>
            <dc:title>startx</dc:title>
          </cc:Agent>
        </dc:creator>
      </cc:Work>
      <cc:License
         rdf:about="http://creativecommons.org/licenses/by-sa/3.0/">
        <cc:permits
           rdf:resource="http://creativecommons.org/ns#Reproduction" />
        <cc:permits
           rdf:resource="http://creativecommons.org/ns#Distribution" />
        <cc:requires
           rdf:resource="http://creativecommons.org/ns#Notice" />
        <cc:requires
           rdf:resource="http://creativecommons.org/ns#Attribution" />
        <cc:permits
           rdf:resource="http://creativecommons.org/ns#DerivativeWorks" />
        <cc:requires
           rdf:resource="http://creativecommons.org/ns#ShareAlike" />
      </cc:License>
    </rdf:RDF>
  </metadata>
  <g
     style="fill:#0c6f5e;fill-opacity:1"
     id="g3"
     transform="matrix(-0.31207665,0,0,0.31283818,161.9617,3.52085)">
    <g
       style="fill:#0c6f5e;fill-opacity:1"
       id="g5">
      <path
         inkscape:connector-curvature="0"
         style="fill:#0c6f5e;fill-opacity:1"
         id="path7"
         d="M 507.477,38.331 473.668,4.522 C 467.907,-1.238 458.662,-1.532 452.547,3.85 L 152.134,268.311 c -1.082,0.952 -2.025,2.052 -2.802,3.266 l -49.487,77.317 63.26,63.26 77.318,-49.487 c 1.215,-0.777 2.313,-1.721 3.266,-2.802 L 508.149,59.452 c 5.384,-6.115 5.09,-15.361 -0.672,-21.121 z" />
    </g>
  </g>
  <g
     id="g9"
     transform="matrix(-0.44602317,0,0,0.44711167,171.49019,-56.11038)">
    <g
       style="fill:#000e44;fill-opacity:1"
       id="g11">
      <path
         inkscape:connector-curvature="0"
         id="path13"
         transform="matrix(-15.853144,0,0,15.81455,379.90302,132.72542)"
         d="m 19.490234,15.84375 -3.644531,3.654297 0.746094,2.796875 c 0.09777,0.36694 0.398246,0.645049 0.771484,0.710937 l 5.457031,0.960938 c 0.280681,0.0495 0.541789,-0.0286 0.746094,-0.181641 l -2.75,-2.75 c -0.573071,0.468497 -1.415097,0.441675 -1.949218,-0.09375 -0.569856,-0.571119 -0.569856,-1.497176 0,-2.068359 0.569792,-0.57112 1.494723,-0.571183 2.064453,0 0.462364,0.463544 0.542006,1.159339 0.253906,1.710937 l 2.644531,2.910157 c 0.10984,-0.189236 0.16127,-0.418147 0.119141,-0.658203 l -0.960938,-5.470704 c -0.0656,-0.374086 -0.340984,-0.675426 -0.707031,-0.773437 z m 4.339844,7.650391 c -0.07838,0.126562 -0.157887,0.227401 -0.263672,0.291015 0.104759,-0.0621 0.183594,-0.16276 0.263672,-0.291015 z m -2.644531,-2.910157 c -0.110006,0.169225 -0.193913,0.329604 -0.369141,0.451172 0.177404,-0.122017 0.259196,-0.281912 0.369141,-0.451172 z"
         style="fill:#000e44;fill-opacity:1" />
    </g>
    <g
       transform="matrix(-1.1507985,0,0,1.1479968,-12.291088,-64.327177)"
       style="font-style:normal;font-weight:normal;font-size:266.16577148px;line-height:150%;font-family:Sans;letter-spacing:0px;word-spacing:3.34608388px;fill:#000000;fill-opacity:1;stroke:none;stroke-width:1px;stroke-linecap:butt;stroke-linejoin:miter;stroke-opacity:1"
       id="text4196">
      <path
         d="m -0.34260956,345.8358 46.57900956,0 q 8.517305,-12.77596 12.509792,-33.80306 5.323315,-0.79849 10.380465,-0.79849 5.057149,0 9.315802,0.79849 l -2.661658,50.30533 -131.485891,0 1.064663,-10.91279 q 10.380465,-1.597 15.171449,-6.65415 l 0,-141.06786 q -4.258652,-3.72632 -16.502278,-7.98497 l 1.330829,-10.9128 74.26025,0 -1.596994,10.9128 q -11.4451285,2.12933 -18.36543856,7.98497 l 0,142.13253 z"
         style="font-style:normal;font-variant:normal;font-weight:bold;font-stretch:normal;font-family:Caladea;-inkscape-font-specification:'Caladea Bold';letter-spacing:13.43583107px;fill:#000e44;fill-opacity:1"
         id="path4201"
         inkscape:connector-curvature="0" />
      <path
         d="m 119.48884,268.11539 q 0,-9.58197 -3.72632,-13.04212 -3.46016,-3.72632 -12.77596,-4.25865 l 0.7985,-10.38047 q 3.46015,-0.7985 14.37295,-2.66166 25.81808,-3.99248 34.33538,-6.38798 l 4.52482,2.3955 0,110.99112 q 6.65415,5.05715 17.03461,7.18648 l -1.06466,10.38046 -68.40461,0 1.06467,-10.91279 q 8.78347,-1.86316 13.84062,-6.65415 l 0,-76.65574 z m 19.16393,-89.4317 q 21.29326,0 21.29326,18.63161 0,18.6316 -21.29326,18.6316 -21.02709,0 -21.02709,-18.6316 0,-18.63161 21.02709,-18.63161 z"
         style="font-style:normal;font-variant:normal;font-weight:bold;font-stretch:normal;font-family:Caladea;-inkscape-font-specification:'Caladea Bold';letter-spacing:13.43583107px;fill:#000e44;fill-opacity:1"
         id="path4203"
         inkscape:connector-curvature="0" />
      <path
         d="m 250.96919,249.21762 q 11.7113,-17.83311 35.66622,-17.83311 24.22108,0 36.73087,15.96995 12.77596,15.96995 12.77596,48.44217 0,32.20606 -15.96995,50.30533 -15.70378,18.09927 -44.18351,18.09927 -20.2286,0 -35.66622,-8.5173 l -6.92031,6.65414 -19.96243,0 0,-148.5205 q 0,-9.84813 -3.72632,-13.30829 -3.46016,-3.72632 -12.77596,-4.25865 l 0.53233,-10.38046 q 38.06171,-5.85565 48.97451,-9.04964 l 4.52481,2.66166 0,69.73543 z m 24.22109,-1.86316 q -11.44513,0 -17.83311,11.17896 -6.38798,11.17897 -6.38798,32.47223 l 0,54.03165 q 7.18648,5.05715 17.56694,5.05715 28.74591,0 28.74591,-55.89481 0,-46.84518 -22.09176,-46.84518 z"
         style="font-style:normal;font-variant:normal;font-weight:bold;font-stretch:normal;font-family:Caladea;-inkscape-font-specification:'Caladea Bold';letter-spacing:13.43583107px;fill:#000e44;fill-opacity:1"
         id="path4205"
         inkscape:connector-curvature="0" />
      <path
         d="m 385.73502,268.11539 q 0,-9.58197 -3.72632,-13.04212 -3.72632,-3.72632 -13.04213,-4.25865 l 0.7985,-10.38047 q 39.92487,-7.45264 45.51435,-9.04964 l 4.79098,2.3955 2.12933,17.56694 q 13.57445,-19.69627 34.33538,-19.69627 10.38047,0 17.83311,7.18648 7.71881,6.92031 7.71881,17.03461 0,9.84813 -5.58948,15.43761 -5.32332,5.32332 -13.04213,5.32332 -7.7188,0 -12.50979,-6.65415 3.72632,-4.52482 3.72632,-8.78347 0,-4.25865 -3.72632,-6.92031 -3.46015,-2.66166 -8.5173,-2.66166 -5.05715,0 -10.64663,4.79099 -5.32332,4.52481 -8.51731,11.97746 l 0,76.38957 q 6.12181,4.79099 15.96995,7.18648 l -1.06467,10.38046 -67.33994,0 0.7985,-10.91279 q 8.51731,-1.597 14.10679,-6.65415 l 0,-76.65574 z"
         style="font-style:normal;font-variant:normal;font-weight:bold;font-stretch:normal;font-family:Caladea;-inkscape-font-specification:'Caladea Bold';letter-spacing:13.43583107px;fill:#000e44;fill-opacity:1"
         id="path4207"
         inkscape:connector-curvature="0" />
      <path
         d="m 543.2497,297.65979 0,4.25865 q 0,22.35793 6.38798,33.27073 6.38798,10.64663 23.95492,10.64663 22.35792,0 36.73087,-14.63912 l 10.64664,10.38046 q -10.9128,10.9128 -22.89026,16.76845 -11.7113,5.85564 -30.87523,5.85564 -30.87523,0 -46.57901,-17.30077 -15.43762,-17.56694 -15.43762,-48.44217 0,-31.1414 16.50228,-48.9745 16.50228,-18.09928 46.84518,-18.09928 30.60906,0 43.11885,13.84062 12.50979,13.84062 14.10679,41.2557 l -7.45264,11.17896 -75.05875,0 z m 25.01958,-53.23315 q -24.22108,0 -25.01958,42.58652 l 44.71585,-2.12933 q 0,-21.29326 -4.25865,-30.87523 -4.25866,-9.58196 -15.43762,-9.58196 z"
         style="font-style:normal;font-variant:normal;font-weight:bold;font-stretch:normal;font-family:Caladea;-inkscape-font-specification:'Caladea Bold';letter-spacing:13.43583107px;fill:#000e44;fill-opacity:1"
         id="path4209"
         inkscape:connector-curvature="0" />
    </g>
  </g>
  <g
     id="g15"
     transform="matrix(0.96381284,0,0,0.96381284,495.16753,-1716.5309)" />
  <g
     id="g17"
     transform="matrix(0.96381284,0,0,0.96381284,495.16753,-1716.5309)" />
  <g
     id="g19"
     transform="matrix(0.96381284,0,0,0.96381284,495.16753,-1716.5309)" />
  <g
     id="g21"
     transform="matrix(0.96381284,0,0,0.96381284,495.16753,-1716.5309)" />
  <g
     id="g23"
     transform="matrix(0.96381284,0,0,0.96381284,495.16753,-1716.5309)" />
  <g
     id="g25"
     transform="matrix(0.96381284,0,0,0.96381284,495.16753,-1716.5309)" />
  <g
     id="g27"
     transform="matrix(0.96381284,0,0,0.96381284,495.16753,-1716.5309)" />
  <g
     id="g29"
     transform="matrix(0.96381284,0,0,0.96381284,495.16753,-1716.5309)" />
  <g
     id="g31"
     transform="matrix(0.96381284,0,0,0.96381284,495.16753,-1716.5309)" />
  <g
     id="g33"
     transform="matrix(0.96381284,0,0,0.96381284,495.16753,-1716.5309)" />
  <g
     id="g35"
     transform="matrix(0.96381284,0,0,0.96381284,495.16753,-1716.5309)" />
  <g
     id="g37"
     transform="matrix(0.96381284,0,0,0.96381284,495.16753,-1716.5309)" />
  <g
     id="g39"
     transform="matrix(0.96381284,0,0,0.96381284,495.16753,-1716.5309)" />
  <g
     id="g41"
     transform="matrix(0.96381284,0,0,0.96381284,495.16753,-1716.5309)" />
  <g
     id="g43"
     transform="matrix(0.96381284,0,0,0.96381284,495.16753,-1716.5309)" />
</svg>
