<?xml version="1.0" encoding="UTF-8" standalone="no"?>
<svg
   xmlns:dc="http://purl.org/dc/elements/1.1/"
   xmlns:cc="http://creativecommons.org/ns#"
   xmlns:rdf="http://www.w3.org/1999/02/22-rdf-syntax-ns#"
   xmlns:svg="http://www.w3.org/2000/svg"
   xmlns="http://www.w3.org/2000/svg"
   width="24"
   height="24"
   viewBox="0 0 24 24"
   id="svg2"
   version="1.1">
  <title
     id="title4390">SXAPI logo</title>
  <defs
     id="defs4" />
  <metadata
     id="metadata7">
    <rdf:RDF>
      <cc:Work
         rdf:about="">
        <dc:format>image/svg+xml</dc:format>
        <dc:type
           rdf:resource="http://purl.org/dc/dcmitype/StillImage" />
        <dc:title>SXAPI logo</dc:title>
        <cc:license
           rdf:resource="http://creativecommons.org/licenses/by-sa/3.0/" />
        <dc:creator>
          <cc:Agent>
            <dc:title>startx</dc:title>
          </cc:Agent>
        </dc:creator>
      </cc:Work>
      <cc:License
         rdf:about="http://creativecommons.org/licenses/by-sa/3.0/">
        <cc:permits
           rdf:resource="http://creativecommons.org/ns#Reproduction" />
        <cc:permits
           rdf:resource="http://creativecommons.org/ns#Distribution" />
        <cc:requires
           rdf:resource="http://creativecommons.org/ns#Notice" />
        <cc:requires
           rdf:resource="http://creativecommons.org/ns#Attribution" />
        <cc:permits
           rdf:resource="http://creativecommons.org/ns#DerivativeWorks" />
        <cc:requires
           rdf:resource="http://creativecommons.org/ns#ShareAlike" />
      </cc:License>
    </rdf:RDF>
  </metadata>
  <g
     style="fill:#0c6f5e;fill-opacity:1"
     id="g3"
     transform="matrix(-0.04413554,0,0,0.04424324,22.61632,0.0407506)">
    <g
       style="fill:#0c6f5e;fill-opacity:1"
       id="g5">
      <path
         style="fill:#0c6f5e;fill-opacity:1"
         id="path7"
         d="M 507.477,38.331 473.668,4.522 C 467.907,-1.238 458.662,-1.532 452.547,3.85 L 152.134,268.311 c -1.082,0.952 -2.025,2.052 -2.802,3.266 l -49.487,77.317 63.26,63.26 77.318,-49.487 c 1.215,-0.777 2.313,-1.721 3.266,-2.802 L 508.149,59.452 c 5.384,-6.115 5.09,-15.361 -0.672,-21.121 z" />
    </g>
  </g>
  <g
     id="g9"
     transform="matrix(-0.06307897,0,0,0.06323291,23.963891,-8.3926146)">
    <g
       style="fill:#000e44;fill-opacity:1"
       id="g11">
      <path
         id="path13"
         transform="matrix(-15.853144,0,0,15.81455,379.90302,132.72542)"
         d="m 19.490234,15.84375 -3.644531,3.654297 0.746094,2.796875 c 0.09777,0.36694 0.398246,0.645049 0.771484,0.710937 l 5.457031,0.960938 c 0.280681,0.0495 0.541789,-0.0286 0.746094,-0.181641 l -2.75,-2.75 c -0.573071,0.468497 -1.415097,0.441675 -1.949218,-0.09375 -0.569856,-0.571119 -0.569856,-1.497176 0,-2.068359 0.569792,-0.57112 1.494723,-0.571183 2.064453,0 0.462364,0.463544 0.542006,1.159339 0.253906,1.710937 l 2.644531,2.910157 c 0.10984,-0.189236 0.16127,-0.418147 0.119141,-0.658203 l -0.960938,-5.470704 c -0.0656,-0.374086 -0.340984,-0.675426 -0.707031,-0.773437 z m 4.339844,7.650391 c -0.07838,0.126562 -0.157887,0.227401 -0.263672,0.291015 0.104759,-0.0621 0.183594,-0.16276 0.263672,-0.291015 z m -2.644531,-2.910157 c -0.110006,0.169225 -0.193913,0.329604 -0.369141,0.451172 0.177404,-0.122017 0.259196,-0.281912 0.369141,-0.451172 z"
         style="fill:#000e44;fill-opacity:1" />
    </g>
  </g>
  <g
     id="g15"
     transform="matrix(0.13630754,0,0,0.13630754,69.74006,-212.10454)" />
  <g
     id="g17"
     transform="matrix(0.13630754,0,0,0.13630754,69.74006,-212.10454)" />
  <g
     id="g19"
     transform="matrix(0.13630754,0,0,0.13630754,69.74006,-212.10454)" />
  <g
     id="g21"
     transform="matrix(0.13630754,0,0,0.13630754,69.74006,-212.10454)" />
  <g
     id="g23"
     transform="matrix(0.13630754,0,0,0.13630754,69.74006,-212.10454)" />
  <g
     id="g25"
     transform="matrix(0.13630754,0,0,0.13630754,69.74006,-212.10454)" />
  <g
     id="g27"
     transform="matrix(0.13630754,0,0,0.13630754,69.74006,-212.10454)" />
  <g
     id="g29"
     transform="matrix(0.13630754,0,0,0.13630754,69.74006,-212.10454)" />
  <g
     id="g31"
     transform="matrix(0.13630754,0,0,0.13630754,69.74006,-212.10454)" />
  <g
     id="g33"
     transform="matrix(0.13630754,0,0,0.13630754,69.74006,-212.10454)" />
  <g
     id="g35"
     transform="matrix(0.13630754,0,0,0.13630754,69.74006,-212.10454)" />
  <g
     id="g37"
     transform="matrix(0.13630754,0,0,0.13630754,69.74006,-212.10454)" />
  <g
     id="g39"
     transform="matrix(0.13630754,0,0,0.13630754,69.74006,-212.10454)" />
  <g
     id="g41"
     transform="matrix(0.13630754,0,0,0.13630754,69.74006,-212.10454)" />
  <g
     id="g43"
     transform="matrix(0.13630754,0,0,0.13630754,69.74006,-212.10454)" />
</svg>
